<?xml version="1.0" encoding="UTF-8"?>
<svg xmlns="http://www.w3.org/2000/svg" xmlns:xlink="http://www.w3.org/1999/xlink" width="564px" height="48px" viewBox="0 0 563 48" version="1.1">
<defs>
<filter id="hueRotate" color-interpolation-filters="sRGB">
<feColorMatrix type="hueRotate" values="315"></feColorMatrix>
</filter>
<linearGradient id="linear0" gradientUnits="userSpaceOnUse" x1="4291" y1="-30.9375" x2="4291" y2="792" gradientTransform="matrix(0.065336,0,0,0.0653951,0,0)">
<stop offset="0" style="stop-color:rgb(90.588235%,32.156863%,24.705882%);stop-opacity:1;"/>
<stop offset="1" style="stop-color:rgb(67.843137%,6.666667%,5.490196%);stop-opacity:1;"/>
</linearGradient>
</defs>
<g filter="url(#hueRotate)">
<g id="surface1">
<path style=" stroke:none;fill-rule:nonzero;fill:url(#linear0);" d="M 0.0429688 38.714844 L 0.0429688 1.761719 L 36.289062 1.761719 L 36.289062 5.609375 L 4.65625 5.609375 L 4.65625 17.929688 L 34.964844 17.929688 L 34.964844 21.777344 L 4.65625 21.777344 L 4.65625 34.863281 L 36.960938 34.863281 L 36.960938 38.714844 Z M 57.753906 39.242188 C 54.660156 39.242188 52.03125 39.082031 49.867188 38.761719 C 47.707031 38.457031 45.957031 37.824219 44.628906 36.863281 C 43.296875 35.882812 42.328125 34.421875 41.71875 32.484375 C 41.109375 30.542969 40.808594 27.953125 40.808594 24.710938 C 40.808594 21.570312 41.109375 19.050781 41.71875 17.15625 C 42.328125 15.265625 43.296875 13.839844 44.628906 12.875 C 45.957031 11.914062 47.707031 11.273438 49.867188 10.949219 C 52.03125 10.628906 54.660156 10.46875 57.753906 10.46875 C 61.453125 10.46875 64.5 10.6875 66.886719 11.121094 C 69.289062 11.535156 71.070312 12.402344 72.222656 13.71875 C 73.375 15.03125 73.953125 17.039062 73.953125 19.730469 L 69.53125 19.730469 C 69.53125 18.175781 69.210938 17.011719 68.570312 16.242188 C 67.929688 15.472656 66.757812 14.960938 65.058594 14.703125 C 63.359375 14.449219 60.925781 14.320312 57.753906 14.320312 C 54.898438 14.320312 52.640625 14.4375 50.972656 14.679688 C 49.308594 14.921875 48.082031 15.394531 47.296875 16.097656 C 46.511719 16.789062 46 17.824219 45.757812 19.203125 C 45.535156 20.582031 45.421875 22.417969 45.421875 24.710938 C 45.421875 27.085938 45.535156 28.988281 45.757812 30.414062 C 46 31.839844 46.511719 32.914062 47.296875 33.636719 C 48.082031 34.34375 49.308594 34.816406 50.972656 35.058594 C 52.640625 35.28125 54.898438 35.394531 57.753906 35.394531 C 60.171875 35.394531 62.152344 35.328125 63.6875 35.203125 C 65.226562 35.058594 66.421875 34.785156 67.269531 34.382812 C 68.121094 33.964844 68.703125 33.371094 69.027344 32.601562 C 69.363281 31.816406 69.53125 30.773438 69.53125 29.476562 L 73.953125 29.476562 C 73.953125 31.625 73.632812 33.347656 72.992188 34.648438 C 72.351562 35.945312 71.371094 36.925781 70.058594 37.582031 C 68.746094 38.242188 67.0625 38.683594 65.011719 38.90625 C 62.976562 39.132812 60.554688 39.242188 57.753906 39.242188 Z M 80.898438 38.714844 L 80.898438 1.761719 L 85.515625 1.761719 L 85.515625 38.714844 Z M 93.207031 38.714844 L 93.207031 12.539062 L 97.820312 12.539062 L 97.820312 38.714844 Z M 93.207031 6.378906 L 93.207031 1.761719 L 97.820312 1.761719 L 97.820312 6.378906 Z M 133.347656 24.710938 C 133.347656 22.417969 133.226562 20.582031 132.984375 19.203125 C 132.761719 17.824219 132.257812 16.789062 131.472656 16.097656 C 130.6875 15.394531 129.460938 14.921875 127.792969 14.679688 C 126.144531 14.4375 123.882812 14.320312 121.015625 14.320312 C 118.402344 14.320312 116.289062 14.4375 114.667969 14.679688 C 113.050781 14.921875 111.808594 15.394531 110.945312 16.097656 C 110.078125 16.789062 109.484375 17.824219 109.164062 19.203125 C 108.84375 20.582031 108.683594 22.417969 108.683594 24.710938 C 108.683594 27.085938 108.84375 28.988281 109.164062 30.414062 C 109.484375 31.839844 110.078125 32.914062 110.945312 33.636719 C 111.808594 34.34375 113.050781 34.816406 114.667969 35.058594 C 116.289062 35.28125 118.402344 35.394531 121.015625 35.394531 C 123.882812 35.394531 126.144531 35.28125 127.792969 35.058594 C 129.460938 34.816406 130.6875 34.34375 131.472656 33.636719 C 132.257812 32.914062 132.761719 31.839844 132.984375 30.414062 C 133.226562 28.988281 133.347656 27.085938 133.347656 24.710938 Z M 104.070312 47.953125 L 104.070312 11 L 108.683594 11 L 108.683594 14.152344 C 109.855469 12.59375 111.457031 11.59375 113.492188 11.144531 C 115.542969 10.695312 118.050781 10.46875 121.015625 10.46875 C 124.125 10.46875 126.753906 10.628906 128.898438 10.949219 C 131.0625 11.273438 132.808594 11.914062 134.140625 12.875 C 135.46875 13.839844 136.4375 15.265625 137.046875 17.15625 C 137.65625 19.050781 137.960938 21.570312 137.960938 24.710938 C 137.960938 27.953125 137.65625 30.542969 137.046875 32.484375 C 136.4375 34.421875 135.46875 35.882812 134.140625 36.863281 C 132.808594 37.824219 131.0625 38.457031 128.898438 38.761719 C 126.753906 39.082031 124.125 39.242188 121.015625 39.242188 C 118.050781 39.242188 115.542969 39.019531 113.492188 38.570312 C 111.457031 38.121094 109.855469 37.109375 108.683594 35.539062 L 108.683594 47.953125 Z M 158.992188 39.242188 C 155.628906 39.242188 152.917969 39.132812 150.867188 38.90625 C 148.832031 38.683594 147.289062 38.265625 146.230469 37.65625 C 145.1875 37.046875 144.484375 36.179688 144.113281 35.058594 C 143.761719 33.933594 143.585938 32.476562 143.585938 30.679688 L 148.007812 30.679688 C 148.007812 31.6875 148.082031 32.507812 148.222656 33.132812 C 148.367188 33.742188 148.777344 34.214844 149.449219 34.550781 C 150.125 34.871094 151.214844 35.097656 152.71875 35.226562 C 154.242188 35.335938 156.375 35.394531 159.113281 35.394531 C 162.011719 35.394531 164.265625 35.335938 165.867188 35.226562 C 167.484375 35.097656 168.648438 34.871094 169.351562 34.550781 C 170.058594 34.214844 170.484375 33.734375 170.625 33.109375 C 170.785156 32.484375 170.867188 31.65625 170.867188 30.628906 C 170.867188 29.378906 170.753906 28.441406 170.53125 27.816406 C 170.304688 27.191406 169.777344 26.773438 168.945312 26.566406 C 168.109375 26.339844 166.78125 26.21875 164.953125 26.203125 L 153.945312 26.082031 C 151.109375 26.050781 148.945312 25.8125 147.457031 25.363281 C 145.964844 24.914062 144.949219 24.125 144.402344 23.003906 C 143.859375 21.867188 143.585938 20.253906 143.585938 18.167969 C 143.585938 16.226562 143.882812 14.726562 144.476562 13.667969 C 145.082031 12.609375 146.027344 11.855469 147.3125 11.40625 C 148.59375 10.960938 150.257812 10.695312 152.308594 10.613281 C 154.363281 10.519531 156.835938 10.46875 159.738281 10.46875 C 163.152344 10.46875 165.859375 10.574219 167.863281 10.78125 C 169.882812 10.992188 171.386719 11.382812 172.382812 11.960938 C 173.390625 12.539062 174.046875 13.382812 174.351562 14.488281 C 174.671875 15.578125 174.832031 17.003906 174.832031 18.769531 L 170.410156 18.769531 C 170.410156 17.726562 170.339844 16.910156 170.195312 16.316406 C 170.050781 15.707031 169.65625 15.265625 169.015625 14.992188 C 168.390625 14.703125 167.367188 14.519531 165.9375 14.4375 C 164.527344 14.359375 162.542969 14.320312 159.976562 14.320312 C 157.0625 14.320312 154.792969 14.351562 153.175781 14.414062 C 151.558594 14.480469 150.386719 14.632812 149.667969 14.871094 C 148.945312 15.113281 148.503906 15.496094 148.34375 16.027344 C 148.183594 16.539062 148.105469 17.253906 148.105469 18.167969 C 148.105469 19.097656 148.152344 19.835938 148.25 20.382812 C 148.359375 20.910156 148.640625 21.3125 149.089844 21.585938 C 149.539062 21.855469 150.265625 22.042969 151.277344 22.136719 C 152.300781 22.21875 153.730469 22.265625 155.554688 22.28125 L 165.050781 22.378906 C 167.902344 22.410156 170.066406 22.652344 171.539062 23.101562 C 173.03125 23.535156 174.039062 24.34375 174.570312 25.53125 C 175.113281 26.699219 175.386719 28.402344 175.386719 30.628906 C 175.386719 32.636719 175.089844 34.214844 174.496094 35.371094 C 173.917969 36.523438 172.988281 37.382812 171.707031 37.945312 C 170.425781 38.488281 168.734375 38.84375 166.636719 39.003906 C 164.554688 39.164062 162.003906 39.242188 158.992188 39.242188 Z M 213.265625 30.484375 C 213.265625 32.554688 212.953125 34.183594 212.328125 35.371094 C 211.71875 36.558594 210.78125 37.421875 209.515625 37.96875 C 208.25 38.511719 206.632812 38.859375 204.660156 39.003906 C 202.707031 39.164062 200.375 39.242188 197.667969 39.242188 C 194.574219 39.242188 191.945312 39.082031 189.785156 38.761719 C 187.636719 38.457031 185.898438 37.824219 184.566406 36.863281 C 183.253906 35.882812 182.292969 34.421875 181.683594 32.484375 C 181.089844 30.542969 180.792969 27.953125 180.792969 24.710938 C 180.792969 21.570312 181.082031 19.050781 181.660156 17.15625 C 182.253906 15.265625 183.207031 13.839844 184.519531 12.875 C 185.832031 11.914062 187.554688 11.273438 189.6875 10.949219 C 191.835938 10.628906 194.453125 10.46875 197.546875 10.46875 C 201.089844 10.46875 204.019531 10.71875 206.34375 11.214844 C 208.667969 11.710938 210.398438 12.660156 211.535156 14.054688 C 212.691406 15.449219 213.265625 17.496094 213.265625 20.1875 L 213.265625 26.132812 L 185.433594 26.132812 C 185.449219 28.183594 185.59375 29.828125 185.863281 31.0625 C 186.136719 32.296875 186.683594 33.230469 187.5 33.855469 C 188.316406 34.480469 189.535156 34.898438 191.152344 35.105469 C 192.789062 35.296875 194.960938 35.394531 197.667969 35.394531 C 200.101562 35.394531 202.066406 35.347656 203.554688 35.25 C 205.0625 35.152344 206.199219 34.945312 206.96875 34.625 C 207.753906 34.289062 208.285156 33.789062 208.554688 33.132812 C 208.828125 32.476562 208.964844 31.59375 208.964844 30.484375 Z M 197.546875 14.320312 C 194.933594 14.320312 192.828125 14.414062 191.226562 14.609375 C 189.640625 14.800781 188.429688 15.175781 187.597656 15.738281 C 186.761719 16.285156 186.195312 17.101562 185.890625 18.191406 C 185.601562 19.28125 185.449219 20.71875 185.433594 22.5 L 208.84375 22.5 L 208.84375 20.1875 C 208.84375 19.035156 208.707031 18.082031 208.433594 17.328125 C 208.179688 16.554688 207.667969 15.957031 206.898438 15.523438 C 206.128906 15.074219 204.992188 14.761719 203.484375 14.582031 C 201.992188 14.40625 200.015625 14.320312 197.546875 14.320312 Z M 234.875 38.714844 L 234.875 1.761719 L 259.585938 1.761719 C 263.191406 1.761719 266.089844 1.9375 268.285156 2.289062 C 270.496094 2.644531 272.171875 3.238281 273.308594 4.070312 C 274.445312 4.886719 275.214844 6.003906 275.617188 7.414062 C 276.015625 8.808594 276.21875 10.550781 276.21875 12.636719 L 276.21875 13.597656 C 276.21875 15.585938 276.007812 17.277344 275.59375 18.671875 C 275.191406 20.054688 274.40625 21.167969 273.238281 22.019531 C 272.066406 22.867188 270.375 23.492188 268.164062 23.894531 C 265.953125 24.277344 263.046875 24.472656 259.441406 24.472656 L 239.492188 24.472656 L 239.492188 38.714844 Z M 271.601562 12.636719 C 271.601562 11.113281 271.457031 9.890625 271.167969 8.976562 C 270.882812 8.0625 270.304688 7.375 269.4375 6.910156 C 268.574219 6.445312 267.285156 6.140625 265.570312 5.996094 C 263.855469 5.835938 261.5625 5.753906 258.695312 5.753906 L 239.492188 5.753906 L 239.492188 20.476562 L 258.695312 20.476562 C 261.5625 20.476562 263.855469 20.390625 265.570312 20.214844 C 267.285156 20.019531 268.574219 19.683594 269.4375 19.203125 C 270.304688 18.707031 270.882812 18.007812 271.167969 17.109375 C 271.457031 16.195312 271.601562 15.023438 271.601562 13.597656 Z M 282.660156 38.714844 L 282.660156 1.761719 L 287.273438 1.761719 L 287.273438 38.714844 Z M 309.578125 39.242188 C 306.261719 39.242188 303.523438 39.066406 301.359375 38.714844 C 299.210938 38.378906 297.609375 37.625 296.550781 36.453125 C 295.511719 35.28125 294.988281 33.460938 294.988281 30.992188 C 294.988281 28.472656 295.480469 26.628906 296.457031 25.457031 C 297.449219 24.269531 299.011719 23.5 301.144531 23.148438 C 303.289062 22.796875 306.101562 22.617188 309.578125 22.617188 C 312.398438 22.617188 314.761719 22.683594 316.671875 22.8125 C 318.578125 22.941406 320.285156 23.164062 321.789062 23.484375 C 321.757812 21.351562 321.613281 19.675781 321.359375 18.457031 C 321.101562 17.222656 320.621094 16.308594 319.914062 15.714844 C 319.210938 15.121094 318.175781 14.746094 316.816406 14.582031 C 315.46875 14.40625 313.675781 14.320312 311.429688 14.320312 C 308.867188 14.320312 306.855469 14.375 305.398438 14.488281 C 303.957031 14.601562 302.90625 14.800781 302.25 15.089844 C 301.589844 15.378906 301.175781 15.792969 301 16.339844 C 300.839844 16.886719 300.757812 17.589844 300.757812 18.457031 L 296.144531 18.457031 C 296.144531 16.726562 296.375 15.328125 296.839844 14.269531 C 297.320312 13.210938 298.128906 12.410156 299.269531 11.863281 C 300.40625 11.320312 301.960938 10.949219 303.929688 10.757812 C 305.917969 10.566406 308.417969 10.46875 311.429688 10.46875 C 314.667969 10.46875 317.269531 10.679688 319.242188 11.09375 C 321.230469 11.511719 322.734375 12.265625 323.761719 13.355469 C 324.800781 14.429688 325.5 15.9375 325.851562 17.878906 C 326.21875 19.820312 326.40625 22.324219 326.40625 25.386719 L 326.40625 38.714844 L 321.789062 38.714844 L 321.789062 36.8125 C 321.246094 37.390625 320.492188 37.855469 319.53125 38.207031 C 318.570312 38.5625 317.289062 38.816406 315.683594 38.980469 C 314.097656 39.15625 312.0625 39.242188 309.578125 39.242188 Z M 309.578125 35.488281 C 312.320312 35.488281 314.507812 35.457031 316.140625 35.394531 C 317.777344 35.328125 318.992188 35.152344 319.792969 34.863281 C 320.613281 34.574219 321.148438 34.109375 321.40625 33.46875 C 321.660156 32.828125 321.789062 31.929688 321.789062 30.773438 L 321.789062 26.515625 L 309.578125 26.371094 C 307.417969 26.339844 305.667969 26.371094 304.339844 26.46875 C 303.027344 26.546875 302.023438 26.742188 301.335938 27.046875 C 300.644531 27.335938 300.179688 27.800781 299.941406 28.441406 C 299.71875 29.066406 299.605469 29.917969 299.605469 30.992188 C 299.605469 32.035156 299.71875 32.859375 299.941406 33.46875 C 300.179688 34.078125 300.644531 34.527344 301.335938 34.816406 C 302.023438 35.105469 303.027344 35.289062 304.339844 35.371094 C 305.667969 35.449219 307.417969 35.488281 309.578125 35.488281 Z M 348.109375 39.242188 C 344.746094 39.242188 342.035156 39.132812 339.984375 38.90625 C 337.949219 38.683594 336.402344 38.265625 335.347656 37.65625 C 334.304688 37.046875 333.597656 36.179688 333.230469 35.058594 C 332.878906 33.933594 332.703125 32.476562 332.703125 30.679688 L 337.125 30.679688 C 337.125 31.6875 337.195312 32.507812 337.339844 33.132812 C 337.484375 33.742188 337.894531 34.214844 338.566406 34.550781 C 339.238281 34.871094 340.328125 35.097656 341.835938 35.226562 C 343.359375 35.335938 345.488281 35.394531 348.230469 35.394531 C 351.128906 35.394531 353.382812 35.335938 354.984375 35.226562 C 356.601562 35.097656 357.765625 34.871094 358.46875 34.550781 C 359.175781 34.214844 359.597656 33.734375 359.742188 33.109375 C 359.902344 32.484375 359.984375 31.65625 359.984375 30.628906 C 359.984375 29.378906 359.871094 28.441406 359.648438 27.816406 C 359.421875 27.191406 358.894531 26.773438 358.0625 26.566406 C 357.226562 26.339844 355.898438 26.21875 354.070312 26.203125 L 343.0625 26.082031 C 340.226562 26.050781 338.0625 25.8125 336.574219 25.363281 C 335.082031 24.914062 334.066406 24.125 333.519531 23.003906 C 332.976562 21.867188 332.703125 20.253906 332.703125 18.167969 C 332.703125 16.226562 333 14.726562 333.589844 13.667969 C 334.199219 12.609375 335.144531 11.855469 336.429688 11.40625 C 337.710938 10.960938 339.375 10.695312 341.425781 10.613281 C 343.476562 10.519531 345.953125 10.46875 348.855469 10.46875 C 352.269531 10.46875 354.976562 10.574219 356.980469 10.78125 C 359 10.992188 360.503906 11.382812 361.496094 11.960938 C 362.507812 12.539062 363.164062 13.382812 363.46875 14.488281 C 363.789062 15.578125 363.949219 17.003906 363.949219 18.769531 L 359.527344 18.769531 C 359.527344 17.726562 359.453125 16.910156 359.3125 16.316406 C 359.167969 15.707031 358.773438 15.265625 358.132812 14.992188 C 357.507812 14.703125 356.480469 14.519531 355.054688 14.4375 C 353.644531 14.359375 351.660156 14.320312 349.09375 14.320312 C 346.179688 14.320312 343.910156 14.351562 342.292969 14.414062 C 340.675781 14.480469 339.503906 14.632812 338.785156 14.871094 C 338.0625 15.113281 337.621094 15.496094 337.460938 16.027344 C 337.300781 16.539062 337.222656 17.253906 337.222656 18.167969 C 337.222656 19.097656 337.269531 19.835938 337.367188 20.382812 C 337.476562 20.910156 337.757812 21.3125 338.207031 21.585938 C 338.65625 21.855469 339.382812 22.042969 340.394531 22.136719 C 341.417969 22.21875 342.847656 22.265625 344.671875 22.28125 L 354.167969 22.378906 C 357.019531 22.410156 359.183594 22.652344 360.65625 23.101562 C 362.148438 23.535156 363.15625 24.34375 363.683594 25.53125 C 364.230469 26.699219 364.503906 28.402344 364.503906 30.628906 C 364.503906 32.636719 364.207031 34.214844 363.613281 35.371094 C 363.035156 36.523438 362.105469 37.382812 360.824219 37.945312 C 359.542969 38.488281 357.851562 38.84375 355.753906 39.003906 C 353.671875 39.164062 351.121094 39.242188 348.109375 39.242188 Z M 370.777344 38.714844 L 370.777344 11 L 375.390625 11 L 375.390625 14.4375 C 376.078125 13.507812 376.90625 12.730469 377.867188 12.105469 C 378.828125 11.480469 380.054688 11.015625 381.542969 10.710938 C 383.050781 10.390625 384.972656 10.230469 387.3125 10.230469 C 390.214844 10.230469 392.578125 10.621094 394.402344 11.40625 C 396.230469 12.195312 397.574219 13.550781 398.441406 15.472656 C 399.226562 14.253906 400.171875 13.261719 401.277344 12.492188 C 402.382812 11.703125 403.769531 11.136719 405.4375 10.78125 C 407.117188 10.414062 409.183594 10.230469 411.636719 10.230469 C 414.554688 10.230469 416.925781 10.628906 418.75 11.433594 C 420.578125 12.21875 421.917969 13.566406 422.765625 15.472656 C 423.632812 17.382812 424.0625 19.996094 424.0625 23.316406 L 424.0625 38.714844 L 419.449219 38.714844 L 419.449219 23.316406 C 419.449219 20.78125 419.183594 18.859375 418.65625 17.542969 C 418.128906 16.210938 417.246094 15.304688 416.011719 14.824219 C 414.792969 14.328125 413.144531 14.078125 411.0625 14.078125 C 406.972656 14.078125 404.058594 14.679688 402.3125 15.882812 C 400.582031 17.085938 399.714844 19.050781 399.714844 21.777344 L 399.714844 21.753906 C 399.730469 22.25 399.738281 22.773438 399.738281 23.316406 L 399.738281 38.714844 L 395.125 38.714844 L 395.125 23.316406 C 395.125 20.78125 394.859375 18.859375 394.332031 17.542969 C 393.800781 16.210938 392.921875 15.304688 391.6875 14.824219 C 390.46875 14.328125 388.820312 14.078125 386.734375 14.078125 C 382.648438 14.078125 379.734375 14.679688 377.988281 15.882812 C 376.257812 17.085938 375.390625 19.050781 375.390625 21.777344 L 375.390625 38.714844 Z M 444.757812 39.242188 C 441.441406 39.242188 438.703125 39.066406 436.539062 38.714844 C 434.390625 38.378906 432.789062 37.625 431.730469 36.453125 C 430.691406 35.28125 430.167969 33.460938 430.167969 30.992188 C 430.167969 28.472656 430.65625 26.628906 431.636719 25.457031 C 432.628906 24.269531 434.191406 23.5 436.324219 23.148438 C 438.46875 22.796875 441.28125 22.617188 444.757812 22.617188 C 447.578125 22.617188 449.941406 22.683594 451.851562 22.8125 C 453.757812 22.941406 455.464844 23.164062 456.96875 23.484375 C 456.9375 21.351562 456.792969 19.675781 456.535156 18.457031 C 456.28125 17.222656 455.800781 16.308594 455.09375 15.714844 C 454.390625 15.121094 453.355469 14.746094 451.996094 14.582031 C 450.648438 14.40625 448.851562 14.320312 446.609375 14.320312 C 444.046875 14.320312 442.035156 14.375 440.578125 14.488281 C 439.136719 14.601562 438.085938 14.800781 437.429688 15.089844 C 436.769531 15.378906 436.355469 15.792969 436.179688 16.339844 C 436.019531 16.886719 435.9375 17.589844 435.9375 18.457031 L 431.324219 18.457031 C 431.324219 16.726562 431.554688 15.328125 432.019531 14.269531 C 432.5 13.210938 433.308594 12.410156 434.449219 11.863281 C 435.585938 11.320312 437.140625 10.949219 439.109375 10.757812 C 441.097656 10.566406 443.597656 10.46875 446.609375 10.46875 C 449.847656 10.46875 452.449219 10.679688 454.421875 11.09375 C 456.410156 11.511719 457.914062 12.265625 458.941406 13.355469 C 459.980469 14.429688 460.679688 15.9375 461.03125 17.878906 C 461.398438 19.820312 461.585938 22.324219 461.585938 25.386719 L 461.585938 38.714844 L 456.96875 38.714844 L 456.96875 36.8125 C 456.425781 37.390625 455.671875 37.855469 454.710938 38.207031 C 453.75 38.5625 452.464844 38.816406 450.863281 38.980469 C 449.277344 39.15625 447.242188 39.242188 444.757812 39.242188 Z M 444.757812 35.488281 C 447.5 35.488281 449.6875 35.457031 451.320312 35.394531 C 452.957031 35.328125 454.171875 35.152344 454.976562 34.863281 C 455.792969 34.574219 456.328125 34.109375 456.585938 33.46875 C 456.839844 32.828125 456.96875 31.929688 456.96875 30.773438 L 456.96875 26.515625 L 444.757812 26.371094 C 442.59375 26.339844 440.847656 26.371094 439.519531 26.46875 C 438.203125 26.546875 437.203125 26.742188 436.515625 27.046875 C 435.824219 27.335938 435.359375 27.800781 435.121094 28.441406 C 434.894531 29.066406 434.785156 29.917969 434.785156 30.992188 C 434.785156 32.035156 434.894531 32.859375 435.121094 33.46875 C 435.359375 34.078125 435.824219 34.527344 436.515625 34.816406 C 437.203125 35.105469 438.203125 35.289062 439.519531 35.371094 C 440.847656 35.449219 442.59375 35.488281 444.757812 35.488281 Z M 472.257812 38.714844 L 472.257812 14.511719 L 467.640625 14.511719 L 467.640625 11 L 472.257812 11 L 472.257812 9.796875 C 472.257812 7.164062 472.679688 5.144531 473.53125 3.734375 C 474.394531 2.320312 475.734375 1.351562 477.542969 0.824219 C 479.371094 0.292969 481.71875 0.0273438 484.585938 0.0273438 L 489.945312 0.0273438 L 489.945312 3.78125 L 484.5625 3.78125 C 482.273438 3.78125 480.582031 3.925781 479.492188 4.214844 C 478.402344 4.503906 477.6875 5.082031 477.351562 5.945312 C 477.03125 6.796875 476.871094 8.082031 476.871094 9.796875 L 476.871094 11 L 489.945312 11 L 489.945312 14.511719 L 476.871094 14.511719 L 476.871094 38.714844 Z M 509.199219 39.242188 C 506.105469 39.242188 503.480469 39.082031 501.316406 38.761719 C 499.152344 38.457031 497.40625 37.824219 496.078125 36.863281 C 494.746094 35.882812 493.777344 34.421875 493.167969 32.484375 C 492.558594 30.542969 492.253906 27.953125 492.253906 24.710938 C 492.253906 21.570312 492.558594 19.050781 493.167969 17.15625 C 493.777344 15.265625 494.746094 13.839844 496.078125 12.875 C 497.40625 11.914062 499.152344 11.273438 501.316406 10.949219 C 503.480469 10.628906 506.105469 10.46875 509.199219 10.46875 C 512.308594 10.46875 514.9375 10.628906 517.082031 10.949219 C 519.246094 11.273438 520.996094 11.914062 522.324219 12.875 C 523.652344 13.839844 524.625 15.265625 525.234375 17.15625 C 525.839844 19.050781 526.144531 21.570312 526.144531 24.710938 C 526.144531 27.953125 525.839844 30.542969 525.234375 32.484375 C 524.625 34.421875 523.652344 35.882812 522.324219 36.863281 C 520.996094 37.824219 519.246094 38.457031 517.082031 38.761719 C 514.9375 39.082031 512.308594 39.242188 509.199219 39.242188 Z M 521.53125 24.710938 C 521.53125 22.417969 521.410156 20.582031 521.171875 19.203125 C 520.945312 17.824219 520.441406 16.789062 519.65625 16.097656 C 518.871094 15.394531 517.644531 14.921875 515.976562 14.679688 C 514.328125 14.4375 512.070312 14.320312 509.199219 14.320312 C 506.347656 14.320312 504.089844 14.4375 502.421875 14.679688 C 500.753906 14.921875 499.53125 15.394531 498.746094 16.097656 C 497.960938 16.789062 497.445312 17.824219 497.207031 19.203125 C 496.980469 20.582031 496.871094 22.417969 496.871094 24.710938 C 496.871094 27.085938 496.980469 28.988281 497.207031 30.414062 C 497.445312 31.839844 497.960938 32.914062 498.746094 33.636719 C 499.53125 34.34375 500.753906 34.816406 502.421875 35.058594 C 504.089844 35.28125 506.347656 35.394531 509.199219 35.394531 C 512.070312 35.394531 514.328125 35.28125 515.976562 35.058594 C 517.644531 34.816406 518.871094 34.34375 519.65625 33.636719 C 520.441406 32.914062 520.945312 31.839844 521.171875 30.414062 C 521.410156 28.988281 521.53125 27.085938 521.53125 24.710938 Z M 528.453125 38.714844 L 542.636719 24.617188 L 529.125 11 L 535.277344 11 L 545.832031 21.703125 L 556.144531 11 L 562.296875 11 L 548.789062 24.59375 L 562.96875 38.714844 L 556.816406 38.714844 L 545.710938 27.117188 L 534.605469 38.714844 Z M 528.453125 38.714844 "/>
</g>
</g>
</svg>
