<?xml version="1.0" encoding="UTF-8"?>
<svg xmlns="http://www.w3.org/2000/svg" xmlns:xlink="http://www.w3.org/1999/xlink" width="351px" height="42px" viewBox="0 0 350 42" version="1.1">
<defs>
<filter id="hueRotate" color-interpolation-filters="sRGB">
<feColorMatrix type="hueRotate" values="315"></feColorMatrix>
</filter>
<linearGradient id="linear0" gradientUnits="userSpaceOnUse" x1="2493" y1="-30.9375" x2="2493" y2="792" gradientTransform="matrix(0.0696933,0,0,0.0698835,0,0)">
<stop offset="0" style="stop-color:rgb(90.588235%,32.156863%,24.705882%);stop-opacity:1;"/>
<stop offset="1" style="stop-color:rgb(67.843137%,6.666667%,5.490196%);stop-opacity:1;"/>
</linearGradient>
</defs>
<g filter="url(#hueRotate)">
<g id="surface1">
<path style=" stroke:none;fill-rule:nonzero;fill:url(#linear0);" d="M 0.0078125 41.371094 L 0.0078125 1.882812 L 26.363281 1.882812 C 30.210938 1.882812 33.304688 2.070312 35.644531 2.449219 C 38.003906 2.824219 39.789062 3.457031 41.003906 4.351562 C 42.21875 5.222656 43.039062 6.414062 43.464844 7.921875 C 43.894531 9.414062 44.105469 11.273438 44.105469 13.503906 L 44.105469 14.53125 C 44.105469 16.65625 43.882812 18.464844 43.441406 19.957031 C 43.011719 21.429688 42.175781 22.621094 40.925781 23.527344 C 39.679688 24.4375 37.875 25.105469 35.519531 25.535156 C 33.160156 25.945312 30.054688 26.152344 26.210938 26.152344 L 4.929688 26.152344 L 4.929688 41.371094 Z M 39.183594 13.503906 C 39.183594 11.875 39.03125 10.570312 38.722656 9.59375 C 38.414062 8.617188 37.800781 7.878906 36.875 7.382812 C 35.953125 6.886719 34.578125 6.5625 32.75 6.40625 C 30.917969 6.234375 28.476562 6.148438 25.414062 6.148438 L 4.929688 6.148438 L 4.929688 21.882812 L 25.414062 21.882812 C 28.476562 21.882812 30.917969 21.789062 32.75 21.601562 C 34.578125 21.394531 35.953125 21.035156 36.875 20.519531 C 37.800781 19.988281 38.414062 19.242188 38.722656 18.285156 C 39.03125 17.308594 39.183594 16.054688 39.183594 14.53125 Z M 50.976562 41.371094 L 50.976562 1.882812 L 55.902344 1.882812 L 55.902344 41.371094 Z M 79.695312 41.9375 C 76.15625 41.9375 73.234375 41.75 70.925781 41.371094 C 68.636719 41.011719 66.925781 40.207031 65.796875 38.953125 C 64.6875 37.703125 64.132812 35.757812 64.132812 33.117188 C 64.132812 30.425781 64.652344 28.457031 65.695312 27.207031 C 66.753906 25.9375 68.421875 25.113281 70.695312 24.738281 C 72.984375 24.359375 75.984375 24.171875 79.695312 24.171875 C 82.703125 24.171875 85.222656 24.238281 87.257812 24.378906 C 89.292969 24.515625 91.113281 24.753906 92.71875 25.097656 C 92.683594 22.816406 92.53125 21.027344 92.257812 19.722656 C 91.984375 18.402344 91.472656 17.425781 90.71875 16.792969 C 89.96875 16.160156 88.863281 15.757812 87.410156 15.585938 C 85.976562 15.394531 84.0625 15.300781 81.667969 15.300781 C 78.933594 15.300781 76.789062 15.363281 75.234375 15.480469 C 73.695312 15.601562 72.574219 15.816406 71.875 16.125 C 71.171875 16.433594 70.730469 16.878906 70.539062 17.460938 C 70.371094 18.042969 70.285156 18.796875 70.285156 19.722656 L 65.363281 19.722656 C 65.363281 17.871094 65.609375 16.382812 66.105469 15.25 C 66.617188 14.121094 67.480469 13.261719 68.695312 12.679688 C 69.910156 12.097656 71.566406 11.703125 73.667969 11.496094 C 75.789062 11.292969 78.453125 11.1875 81.667969 11.1875 C 85.121094 11.1875 87.898438 11.410156 90 11.855469 C 92.121094 12.300781 93.726562 13.109375 94.820312 14.273438 C 95.933594 15.421875 96.675781 17.03125 97.050781 19.105469 C 97.445312 21.179688 97.640625 23.855469 97.640625 27.128906 L 97.640625 41.371094 L 92.71875 41.371094 L 92.71875 39.339844 C 92.136719 39.957031 91.335938 40.453125 90.308594 40.832031 C 89.285156 41.207031 87.914062 41.484375 86.207031 41.652344 C 84.515625 41.84375 82.34375 41.9375 79.695312 41.9375 Z M 79.695312 37.925781 C 82.617188 37.925781 84.949219 37.890625 86.695312 37.824219 C 88.4375 37.753906 89.734375 37.566406 90.589844 37.257812 C 91.460938 36.949219 92.035156 36.453125 92.308594 35.765625 C 92.582031 35.082031 92.71875 34.121094 92.71875 32.886719 L 92.71875 28.335938 L 79.695312 28.183594 C 77.386719 28.148438 75.523438 28.183594 74.105469 28.285156 C 72.703125 28.371094 71.636719 28.578125 70.898438 28.902344 C 70.164062 29.210938 69.667969 29.707031 69.414062 30.394531 C 69.171875 31.0625 69.054688 31.96875 69.054688 33.117188 C 69.054688 34.234375 69.171875 35.113281 69.414062 35.765625 C 69.667969 36.417969 70.164062 36.898438 70.898438 37.207031 C 71.636719 37.515625 72.703125 37.710938 74.105469 37.796875 C 75.523438 37.882812 77.386719 37.925781 79.695312 37.925781 Z M 120.792969 41.9375 C 117.203125 41.9375 114.316406 41.816406 112.128906 41.578125 C 109.957031 41.335938 108.308594 40.890625 107.179688 40.238281 C 106.070312 39.589844 105.316406 38.664062 104.921875 37.464844 C 104.546875 36.261719 104.359375 34.703125 104.359375 32.785156 L 109.078125 32.785156 C 109.078125 33.863281 109.152344 34.738281 109.308594 35.40625 C 109.460938 36.058594 109.898438 36.5625 110.613281 36.921875 C 111.332031 37.265625 112.496094 37.507812 114.101562 37.644531 C 115.726562 37.761719 118 37.824219 120.921875 37.824219 C 124.015625 37.824219 126.417969 37.761719 128.125 37.644531 C 129.851562 37.507812 131.09375 37.265625 131.84375 36.921875 C 132.597656 36.5625 133.050781 36.050781 133.203125 35.378906 C 133.375 34.710938 133.460938 33.828125 133.460938 32.734375 C 133.460938 31.394531 133.339844 30.394531 133.101562 29.726562 C 132.859375 29.054688 132.296875 28.609375 131.410156 28.386719 C 130.519531 28.148438 129.101562 28.019531 127.152344 28.003906 L 115.410156 27.875 C 112.382812 27.839844 110.078125 27.582031 108.488281 27.101562 C 106.898438 26.621094 105.8125 25.78125 105.230469 24.582031 C 104.648438 23.367188 104.359375 21.644531 104.359375 19.414062 C 104.359375 17.339844 104.675781 15.738281 105.308594 14.609375 C 105.957031 13.476562 106.964844 12.671875 108.332031 12.191406 C 109.699219 11.710938 111.476562 11.429688 113.667969 11.34375 C 115.855469 11.238281 118.496094 11.1875 121.589844 11.1875 C 125.230469 11.1875 128.117188 11.300781 130.253906 11.523438 C 132.410156 11.746094 134.015625 12.164062 135.074219 12.78125 C 136.152344 13.398438 136.851562 14.300781 137.175781 15.480469 C 137.519531 16.648438 137.691406 18.171875 137.691406 20.058594 L 132.972656 20.058594 C 132.972656 18.945312 132.894531 18.070312 132.742188 17.4375 C 132.589844 16.785156 132.167969 16.3125 131.484375 16.023438 C 130.820312 15.714844 129.722656 15.515625 128.203125 15.429688 C 126.699219 15.34375 124.578125 15.300781 121.84375 15.300781 C 118.734375 15.300781 116.316406 15.335938 114.589844 15.40625 C 112.863281 15.472656 111.613281 15.636719 110.847656 15.894531 C 110.078125 16.148438 109.605469 16.5625 109.433594 17.128906 C 109.265625 17.675781 109.179688 18.4375 109.179688 19.414062 C 109.179688 20.410156 109.230469 21.199219 109.332031 21.78125 C 109.453125 22.347656 109.75 22.773438 110.230469 23.066406 C 110.710938 23.359375 111.488281 23.554688 112.5625 23.65625 C 113.65625 23.742188 115.179688 23.792969 117.128906 23.8125 L 127.253906 23.914062 C 130.296875 23.949219 132.605469 24.207031 134.175781 24.6875 C 135.765625 25.148438 136.84375 26.015625 137.40625 27.28125 C 137.988281 28.535156 138.28125 30.351562 138.28125 32.734375 C 138.28125 34.875 137.964844 36.5625 137.332031 37.796875 C 136.714844 39.03125 135.722656 39.949219 134.355469 40.546875 C 132.988281 41.132812 131.1875 41.507812 128.949219 41.679688 C 126.726562 41.851562 124.007812 41.9375 120.792969 41.9375 Z M 144.972656 41.371094 L 144.972656 11.753906 L 149.894531 11.753906 L 149.894531 15.429688 C 150.628906 14.4375 151.511719 13.605469 152.535156 12.9375 C 153.5625 12.269531 154.867188 11.769531 156.457031 11.445312 C 158.066406 11.101562 160.117188 10.929688 162.609375 10.929688 C 165.703125 10.929688 168.226562 11.351562 170.175781 12.191406 C 172.125 13.03125 173.558594 14.480469 174.480469 16.535156 C 175.320312 15.234375 176.328125 14.171875 177.507812 13.347656 C 178.6875 12.507812 180.164062 11.898438 181.945312 11.523438 C 183.738281 11.128906 185.941406 10.929688 188.558594 10.929688 C 191.667969 10.929688 194.199219 11.359375 196.148438 12.21875 C 198.09375 13.058594 199.523438 14.496094 200.429688 16.535156 C 201.351562 18.574219 201.8125 21.371094 201.8125 24.917969 L 201.8125 41.371094 L 196.890625 41.371094 L 196.890625 24.917969 C 196.890625 22.210938 196.609375 20.152344 196.042969 18.746094 C 195.480469 17.324219 194.539062 16.355469 193.226562 15.84375 C 191.925781 15.308594 190.164062 15.042969 187.941406 15.042969 C 183.585938 15.042969 180.472656 15.6875 178.609375 16.972656 C 176.765625 18.257812 175.839844 20.359375 175.839844 23.273438 L 175.839844 23.246094 C 175.859375 23.777344 175.867188 24.335938 175.867188 24.917969 L 175.867188 41.371094 L 170.945312 41.371094 L 170.945312 24.917969 C 170.945312 22.210938 170.664062 20.152344 170.097656 18.746094 C 169.535156 17.324219 168.59375 16.355469 167.277344 15.84375 C 165.980469 15.308594 164.21875 15.042969 161.996094 15.042969 C 157.636719 15.042969 154.527344 15.6875 152.664062 16.972656 C 150.816406 18.257812 149.894531 20.359375 149.894531 23.273438 L 149.894531 41.371094 Z M 223.890625 41.9375 C 220.351562 41.9375 217.429688 41.75 215.121094 41.371094 C 212.832031 41.011719 211.121094 40.207031 209.992188 38.953125 C 208.882812 37.703125 208.324219 35.757812 208.324219 33.117188 C 208.324219 30.425781 208.847656 28.457031 209.890625 27.207031 C 210.949219 25.9375 212.617188 25.113281 214.890625 24.738281 C 217.179688 24.359375 220.179688 24.171875 223.890625 24.171875 C 226.898438 24.171875 229.417969 24.238281 231.453125 24.378906 C 233.488281 24.515625 235.308594 24.753906 236.914062 25.097656 C 236.878906 22.816406 236.726562 21.027344 236.453125 19.722656 C 236.179688 18.402344 235.664062 17.425781 234.914062 16.792969 C 234.160156 16.160156 233.058594 15.757812 231.605469 15.585938 C 230.171875 15.394531 228.257812 15.300781 225.863281 15.300781 C 223.128906 15.300781 220.984375 15.363281 219.429688 15.480469 C 217.890625 15.601562 216.769531 15.816406 216.070312 16.125 C 215.367188 16.433594 214.925781 16.878906 214.734375 17.460938 C 214.566406 18.042969 214.480469 18.796875 214.480469 19.722656 L 209.558594 19.722656 C 209.558594 17.871094 209.804688 16.382812 210.300781 15.25 C 210.8125 14.121094 211.675781 13.261719 212.890625 12.679688 C 214.105469 12.097656 215.761719 11.703125 217.863281 11.496094 C 219.984375 11.292969 222.648438 11.1875 225.863281 11.1875 C 229.316406 11.1875 232.09375 11.410156 234.195312 11.855469 C 236.316406 12.300781 237.921875 13.109375 239.015625 14.273438 C 240.128906 15.421875 240.871094 17.03125 241.246094 19.105469 C 241.640625 21.179688 241.835938 23.855469 241.835938 27.128906 L 241.835938 41.371094 L 236.914062 41.371094 L 236.914062 39.339844 C 236.332031 39.957031 235.53125 40.453125 234.503906 40.832031 C 233.476562 41.207031 232.109375 41.484375 230.402344 41.652344 C 228.710938 41.84375 226.539062 41.9375 223.890625 41.9375 Z M 223.890625 37.925781 C 226.8125 37.925781 229.144531 37.890625 230.886719 37.824219 C 232.632812 37.753906 233.929688 37.566406 234.785156 37.257812 C 235.65625 36.949219 236.230469 36.453125 236.503906 35.765625 C 236.777344 35.082031 236.914062 34.121094 236.914062 32.886719 L 236.914062 28.335938 L 223.890625 28.183594 C 221.582031 28.148438 219.71875 28.183594 218.300781 28.285156 C 216.898438 28.371094 215.828125 28.578125 215.09375 28.902344 C 214.359375 29.210938 213.863281 29.707031 213.609375 30.394531 C 213.367188 31.0625 213.25 31.96875 213.25 33.117188 C 213.25 34.234375 213.367188 35.113281 213.609375 35.765625 C 213.863281 36.417969 214.359375 36.898438 215.09375 37.207031 C 215.828125 37.515625 216.898438 37.710938 218.300781 37.796875 C 219.71875 37.882812 221.582031 37.925781 223.890625 37.925781 Z M 253.21875 41.371094 L 253.21875 15.507812 L 248.296875 15.507812 L 248.296875 11.753906 L 253.21875 11.753906 L 253.21875 10.46875 C 253.21875 7.65625 253.671875 5.5 254.578125 3.988281 C 255.503906 2.480469 256.929688 1.445312 258.859375 0.878906 C 260.808594 0.3125 263.3125 0.03125 266.375 0.03125 L 272.089844 0.03125 L 272.089844 4.042969 L 266.347656 4.042969 C 263.902344 4.042969 262.101562 4.195312 260.9375 4.503906 C 259.777344 4.8125 259.015625 5.429688 258.65625 6.355469 C 258.3125 7.261719 258.144531 8.632812 258.144531 10.46875 L 258.144531 11.753906 L 272.089844 11.753906 L 272.089844 15.507812 L 258.144531 15.507812 L 258.144531 41.371094 Z M 292.628906 41.9375 C 289.328125 41.9375 286.523438 41.765625 284.21875 41.421875 C 281.910156 41.097656 280.046875 40.417969 278.628906 39.390625 C 277.210938 38.347656 276.175781 36.785156 275.527344 34.710938 C 274.875 32.636719 274.550781 29.871094 274.550781 26.410156 C 274.550781 23.050781 274.875 20.359375 275.527344 18.335938 C 276.175781 16.3125 277.210938 14.789062 278.628906 13.757812 C 280.046875 12.730469 281.910156 12.046875 284.21875 11.703125 C 286.523438 11.359375 289.328125 11.1875 292.628906 11.1875 C 295.945312 11.1875 298.746094 11.359375 301.039062 11.703125 C 303.34375 12.046875 305.207031 12.730469 306.628906 13.757812 C 308.046875 14.789062 309.078125 16.3125 309.730469 18.335938 C 310.378906 20.359375 310.703125 23.050781 310.703125 26.410156 C 310.703125 29.871094 310.378906 32.636719 309.730469 34.710938 C 309.078125 36.785156 308.046875 38.347656 306.628906 39.390625 C 305.207031 40.417969 303.34375 41.097656 301.039062 41.421875 C 298.746094 41.765625 295.945312 41.9375 292.628906 41.9375 Z M 305.78125 26.410156 C 305.78125 23.957031 305.652344 21.996094 305.394531 20.519531 C 305.15625 19.046875 304.617188 17.941406 303.78125 17.203125 C 302.941406 16.449219 301.636719 15.945312 299.859375 15.6875 C 298.097656 15.429688 295.6875 15.300781 292.628906 15.300781 C 289.585938 15.300781 287.175781 15.429688 285.398438 15.6875 C 283.621094 15.945312 282.3125 16.449219 281.476562 17.203125 C 280.636719 17.941406 280.089844 19.046875 279.835938 20.519531 C 279.59375 21.996094 279.476562 23.957031 279.476562 26.410156 C 279.476562 28.945312 279.59375 30.976562 279.835938 32.5 C 280.089844 34.027344 280.636719 35.175781 281.476562 35.945312 C 282.3125 36.699219 283.621094 37.207031 285.398438 37.464844 C 287.175781 37.703125 289.585938 37.824219 292.628906 37.824219 C 295.6875 37.824219 298.097656 37.703125 299.859375 37.464844 C 301.636719 37.207031 302.941406 36.699219 303.78125 35.945312 C 304.617188 35.175781 305.15625 34.027344 305.394531 32.5 C 305.652344 30.976562 305.78125 28.945312 305.78125 26.410156 Z M 313.164062 41.371094 L 328.292969 26.304688 L 313.882812 11.753906 L 320.445312 11.753906 L 331.703125 23.195312 L 342.699219 11.753906 L 349.265625 11.753906 L 334.855469 26.28125 L 349.984375 41.371094 L 343.417969 41.371094 L 331.574219 28.980469 L 319.730469 41.371094 Z M 313.164062 41.371094 "/>
</g>
</g>
</svg>
