<?xml version="1.0" encoding="UTF-8"?>
<svg xmlns="http://www.w3.org/2000/svg" xmlns:xlink="http://www.w3.org/1999/xlink" width="596px" height="48px" viewBox="0 0 595 48" version="1.1">
<defs>
<linearGradient id="linear0" gradientUnits="userSpaceOnUse" x1="119.625999" y1="3.00001" x2="119.625999" y2="592" gradientTransform="matrix(0.0652913,0,0,0.0653951,0,0)">
<stop offset="0" style="stop-color:rgb(95.294118%,52.54902%,17.647059%);stop-opacity:1;"/>
<stop offset="0.5" style="stop-color:rgb(87.058824%,38.039216%,7.45098%);stop-opacity:1;"/>
<stop offset="1" style="stop-color:rgb(78.431373%,30.980392%,7.45098%);stop-opacity:1;"/>
</linearGradient>
</defs>
<g id="surface1">
<path style=" stroke:none;fill-rule:nonzero;fill:url(#linear0);" d="M 0.0429688 38.714844 L 0.0429688 1.761719 L 36.261719 1.761719 L 36.261719 5.609375 L 4.652344 5.609375 L 4.652344 17.929688 L 34.941406 17.929688 L 34.941406 21.777344 L 4.652344 21.777344 L 4.652344 34.863281 L 36.9375 34.863281 L 36.9375 38.714844 Z M 57.714844 39.242188 C 54.621094 39.242188 51.996094 39.082031 49.835938 38.761719 C 47.671875 38.457031 45.925781 37.824219 44.597656 36.863281 C 43.269531 35.882812 42.300781 34.421875 41.691406 32.484375 C 41.082031 30.542969 40.777344 27.953125 40.777344 24.710938 C 40.777344 21.570312 41.082031 19.050781 41.691406 17.15625 C 42.300781 15.265625 43.269531 13.839844 44.597656 12.875 C 45.925781 11.914062 47.671875 11.273438 49.835938 10.949219 C 51.996094 10.628906 54.621094 10.46875 57.714844 10.46875 C 61.410156 10.46875 64.453125 10.6875 66.839844 11.121094 C 69.242188 11.535156 71.019531 12.402344 72.171875 13.71875 C 73.324219 15.03125 73.902344 17.039062 73.902344 19.730469 L 69.480469 19.730469 C 69.480469 18.175781 69.164062 17.011719 68.523438 16.242188 C 67.882812 15.472656 66.710938 14.960938 65.015625 14.703125 C 63.316406 14.449219 60.882812 14.320312 57.714844 14.320312 C 54.863281 14.320312 52.605469 14.4375 50.9375 14.679688 C 49.273438 14.921875 48.050781 15.394531 47.265625 16.097656 C 46.480469 16.789062 45.96875 17.824219 45.726562 19.203125 C 45.503906 20.582031 45.390625 22.417969 45.390625 24.710938 C 45.390625 27.085938 45.503906 28.988281 45.726562 30.414062 C 45.96875 31.839844 46.480469 32.914062 47.265625 33.636719 C 48.050781 34.34375 49.273438 34.816406 50.9375 35.058594 C 52.605469 35.28125 54.863281 35.394531 57.714844 35.394531 C 60.132812 35.394531 62.109375 35.328125 63.644531 35.203125 C 65.183594 35.058594 66.375 34.785156 67.226562 34.382812 C 68.074219 33.964844 68.65625 33.371094 68.976562 32.601562 C 69.316406 31.816406 69.480469 30.773438 69.480469 29.476562 L 73.902344 29.476562 C 73.902344 31.625 73.582031 33.347656 72.941406 34.648438 C 72.300781 35.945312 71.324219 36.925781 70.011719 37.582031 C 68.699219 38.242188 67.015625 38.683594 64.96875 38.90625 C 62.933594 39.132812 60.515625 39.242188 57.714844 39.242188 Z M 80.84375 38.714844 L 80.84375 1.761719 L 85.457031 1.761719 L 85.457031 38.714844 Z M 93.140625 38.714844 L 93.140625 12.539062 L 97.753906 12.539062 L 97.753906 38.714844 Z M 93.140625 6.378906 L 93.140625 1.761719 L 97.753906 1.761719 L 97.753906 6.378906 Z M 133.253906 24.710938 C 133.253906 22.417969 133.136719 20.582031 132.894531 19.203125 C 132.671875 17.824219 132.164062 16.789062 131.382812 16.097656 C 130.597656 15.394531 129.371094 14.921875 127.707031 14.679688 C 126.058594 14.4375 123.800781 14.320312 120.933594 14.320312 C 118.324219 14.320312 116.207031 14.4375 114.589844 14.679688 C 112.972656 14.921875 111.734375 15.394531 110.867188 16.097656 C 110.003906 16.789062 109.410156 17.824219 109.089844 19.203125 C 108.769531 20.582031 108.609375 22.417969 108.609375 24.710938 C 108.609375 27.085938 108.769531 28.988281 109.089844 30.414062 C 109.410156 31.839844 110.003906 32.914062 110.867188 33.636719 C 111.734375 34.34375 112.972656 34.816406 114.589844 35.058594 C 116.207031 35.28125 118.324219 35.394531 120.933594 35.394531 C 123.800781 35.394531 126.058594 35.28125 127.707031 35.058594 C 129.371094 34.816406 130.597656 34.34375 131.382812 33.636719 C 132.164062 32.914062 132.671875 31.839844 132.894531 30.414062 C 133.136719 28.988281 133.253906 27.085938 133.253906 24.710938 Z M 104 47.953125 L 104 11 L 108.609375 11 L 108.609375 14.152344 C 109.78125 12.59375 111.382812 11.59375 113.414062 11.144531 C 115.464844 10.695312 117.96875 10.46875 120.933594 10.46875 C 124.039062 10.46875 126.664062 10.628906 128.8125 10.949219 C 130.972656 11.273438 132.71875 11.914062 134.046875 12.875 C 135.378906 13.839844 136.347656 15.265625 136.953125 17.15625 C 137.5625 19.050781 137.867188 21.570312 137.867188 24.710938 C 137.867188 27.953125 137.5625 30.542969 136.953125 32.484375 C 136.347656 34.421875 135.378906 35.882812 134.046875 36.863281 C 132.71875 37.824219 130.972656 38.457031 128.8125 38.761719 C 126.664062 39.082031 124.039062 39.242188 120.933594 39.242188 C 117.96875 39.242188 115.464844 39.019531 113.414062 38.570312 C 111.382812 38.121094 109.78125 37.109375 108.609375 35.539062 L 108.609375 47.953125 Z M 158.882812 39.242188 C 155.519531 39.242188 152.816406 39.132812 150.765625 38.90625 C 148.730469 38.683594 147.1875 38.265625 146.128906 37.65625 C 145.089844 37.046875 144.382812 36.179688 144.015625 35.058594 C 143.664062 33.933594 143.488281 32.476562 143.488281 30.679688 L 147.90625 30.679688 C 147.90625 31.6875 147.980469 32.507812 148.125 33.132812 C 148.265625 33.742188 148.675781 34.214844 149.347656 34.550781 C 150.019531 34.871094 151.109375 35.097656 152.617188 35.226562 C 154.136719 35.335938 156.265625 35.394531 159.003906 35.394531 C 161.902344 35.394531 164.152344 35.335938 165.753906 35.226562 C 167.371094 35.097656 168.53125 34.871094 169.238281 34.550781 C 169.941406 34.214844 170.367188 33.734375 170.507812 33.109375 C 170.671875 32.484375 170.75 31.65625 170.75 30.628906 C 170.75 29.378906 170.636719 28.441406 170.414062 27.816406 C 170.191406 27.191406 169.660156 26.773438 168.828125 26.566406 C 167.996094 26.339844 166.667969 26.21875 164.839844 26.203125 L 153.839844 26.082031 C 151.003906 26.050781 148.84375 25.8125 147.355469 25.363281 C 145.867188 24.914062 144.847656 24.125 144.304688 23.003906 C 143.761719 21.867188 143.488281 20.253906 143.488281 18.167969 C 143.488281 16.226562 143.785156 14.726562 144.375 13.667969 C 144.984375 12.609375 145.929688 11.855469 147.210938 11.40625 C 148.492188 10.960938 150.15625 10.695312 152.207031 10.613281 C 154.257812 10.519531 156.730469 10.46875 159.628906 10.46875 C 163.039062 10.46875 165.746094 10.574219 167.746094 10.78125 C 169.765625 10.992188 171.269531 11.382812 172.261719 11.960938 C 173.273438 12.539062 173.929688 13.382812 174.234375 14.488281 C 174.554688 15.578125 174.714844 17.003906 174.714844 18.769531 L 170.292969 18.769531 C 170.292969 17.726562 170.222656 16.910156 170.078125 16.316406 C 169.933594 15.707031 169.539062 15.265625 168.898438 14.992188 C 168.277344 14.703125 167.25 14.519531 165.824219 14.4375 C 164.417969 14.359375 162.429688 14.320312 159.867188 14.320312 C 156.953125 14.320312 154.6875 14.351562 153.070312 14.414062 C 151.453125 14.480469 150.285156 14.632812 149.566406 14.871094 C 148.84375 15.113281 148.402344 15.496094 148.242188 16.027344 C 148.082031 16.539062 148.003906 17.253906 148.003906 18.167969 C 148.003906 19.097656 148.050781 19.835938 148.148438 20.382812 C 148.257812 20.910156 148.539062 21.3125 148.988281 21.585938 C 149.4375 21.855469 150.164062 22.042969 151.171875 22.136719 C 152.199219 22.21875 153.625 22.265625 155.449219 22.28125 L 164.9375 22.378906 C 167.789062 22.410156 169.949219 22.652344 171.421875 23.101562 C 172.910156 23.535156 173.921875 24.34375 174.449219 25.53125 C 174.992188 26.699219 175.265625 28.402344 175.265625 30.628906 C 175.265625 32.636719 174.96875 34.214844 174.375 35.371094 C 173.800781 36.523438 172.871094 37.382812 171.589844 37.945312 C 170.308594 38.488281 168.621094 38.84375 166.523438 39.003906 C 164.441406 39.164062 161.894531 39.242188 158.882812 39.242188 Z M 213.121094 30.484375 C 213.121094 32.554688 212.808594 34.183594 212.183594 35.371094 C 211.574219 36.558594 210.640625 37.421875 209.375 37.96875 C 208.109375 38.511719 206.492188 38.859375 204.523438 39.003906 C 202.566406 39.164062 200.238281 39.242188 197.53125 39.242188 C 194.441406 39.242188 191.816406 39.082031 189.652344 38.761719 C 187.507812 38.457031 185.769531 37.824219 184.441406 36.863281 C 183.128906 35.882812 182.167969 34.421875 181.558594 32.484375 C 180.964844 30.542969 180.671875 27.953125 180.671875 24.710938 C 180.671875 21.570312 180.957031 19.050781 181.535156 17.15625 C 182.128906 15.265625 183.082031 13.839844 184.394531 12.875 C 185.707031 11.914062 187.429688 11.273438 189.558594 10.949219 C 191.703125 10.628906 194.320312 10.46875 197.414062 10.46875 C 200.949219 10.46875 203.882812 10.71875 206.203125 11.214844 C 208.523438 11.710938 210.253906 12.660156 211.390625 14.054688 C 212.542969 15.449219 213.121094 17.496094 213.121094 20.1875 L 213.121094 26.132812 L 185.304688 26.132812 C 185.324219 28.183594 185.464844 29.828125 185.738281 31.0625 C 186.011719 32.296875 186.554688 33.230469 187.371094 33.855469 C 188.1875 34.480469 189.40625 34.898438 191.023438 35.105469 C 192.65625 35.296875 194.824219 35.394531 197.53125 35.394531 C 199.964844 35.394531 201.929688 35.347656 203.417969 35.25 C 204.921875 35.152344 206.058594 34.945312 206.828125 34.625 C 207.613281 34.289062 208.140625 33.789062 208.414062 33.132812 C 208.683594 32.476562 208.820312 31.59375 208.820312 30.484375 Z M 197.414062 14.320312 C 194.800781 14.320312 192.695312 14.414062 191.09375 14.609375 C 189.507812 14.800781 188.300781 15.175781 187.46875 15.738281 C 186.636719 16.285156 186.066406 17.101562 185.761719 18.191406 C 185.472656 19.28125 185.324219 20.71875 185.304688 22.5 L 208.699219 22.5 L 208.699219 20.1875 C 208.699219 19.035156 208.566406 18.082031 208.292969 17.328125 C 208.035156 16.554688 207.523438 15.957031 206.753906 15.523438 C 205.988281 15.074219 204.851562 14.761719 203.34375 14.582031 C 201.855469 14.40625 199.878906 14.320312 197.414062 14.320312 Z M 233.5625 38.714844 L 233.5625 11 L 238.171875 11 L 238.171875 14.824219 C 238.6875 14.007812 239.199219 13.324219 239.710938 12.78125 C 240.238281 12.234375 240.917969 11.800781 241.753906 11.480469 C 242.601562 11.160156 243.746094 10.933594 245.1875 10.808594 C 246.628906 10.664062 248.527344 10.589844 250.878906 10.589844 L 250.878906 14.464844 C 247.710938 14.464844 245.25 14.574219 243.507812 14.800781 C 241.777344 15.023438 240.535156 15.410156 239.78125 15.957031 C 239.03125 16.484375 238.574219 17.222656 238.414062 18.167969 C 238.253906 19.113281 238.171875 20.316406 238.171875 21.777344 L 238.171875 38.714844 Z M 273.625 39.484375 C 270.023438 39.484375 267.117188 39.292969 264.90625 38.90625 C 262.699219 38.519531 261.007812 37.886719 259.839844 37.003906 C 258.671875 36.125 257.878906 34.953125 257.460938 33.492188 C 257.0625 32.019531 256.859375 30.199219 256.859375 28.03125 L 261.472656 28.03125 C 261.472656 29.636719 261.585938 30.925781 261.808594 31.90625 C 262.050781 32.882812 262.570312 33.636719 263.371094 34.167969 C 264.171875 34.679688 265.402344 35.03125 267.070312 35.226562 C 268.734375 35.402344 271 35.488281 273.867188 35.488281 L 280.304688 35.488281 C 283.171875 35.488281 285.4375 35.402344 287.101562 35.226562 C 288.765625 35.03125 290 34.679688 290.800781 34.167969 C 291.601562 33.636719 292.113281 32.882812 292.339844 31.90625 C 292.578125 30.925781 292.699219 29.636719 292.699219 28.03125 C 292.699219 26.605469 292.585938 25.457031 292.363281 24.59375 C 292.136719 23.726562 291.632812 23.066406 290.847656 22.617188 C 290.0625 22.171875 288.847656 21.875 287.199219 21.730469 C 285.546875 21.570312 283.289062 21.488281 280.425781 21.488281 L 273.265625 21.488281 L 273.265625 17.613281 L 281.386719 17.613281 C 284.011719 17.613281 286.085938 17.535156 287.605469 17.375 C 289.128906 17.214844 290.25 16.925781 290.96875 16.507812 C 291.707031 16.074219 292.179688 15.457031 292.386719 14.65625 C 292.59375 13.839844 292.699219 12.78125 292.699219 11.480469 C 292.699219 9.941406 292.546875 8.730469 292.242188 7.847656 C 291.953125 6.964844 291.371094 6.324219 290.488281 5.921875 C 289.609375 5.523438 288.304688 5.265625 286.574219 5.152344 C 284.859375 5.039062 282.570312 4.984375 279.703125 4.984375 L 274.46875 4.984375 C 271.601562 4.984375 269.304688 5.039062 267.574219 5.152344 C 265.859375 5.265625 264.5625 5.523438 263.683594 5.921875 C 262.800781 6.324219 262.210938 6.964844 261.90625 7.847656 C 261.617188 8.730469 261.472656 9.941406 261.472656 11.480469 L 256.859375 11.480469 C 256.859375 9.378906 257.09375 7.648438 257.558594 6.285156 C 258.039062 4.921875 258.894531 3.855469 260.128906 3.085938 C 261.375 2.3125 263.136719 1.777344 265.410156 1.472656 C 267.6875 1.152344 270.625 0.992188 274.226562 0.992188 L 279.945312 0.992188 C 283.546875 0.992188 286.484375 1.152344 288.757812 1.472656 C 291.03125 1.777344 292.785156 2.3125 294.019531 3.085938 C 295.269531 3.855469 296.125 4.921875 296.589844 6.285156 C 297.070312 7.648438 297.308594 9.378906 297.308594 11.480469 C 297.308594 13.964844 296.839844 15.867188 295.894531 17.183594 C 294.964844 18.496094 293.761719 19.292969 292.289062 19.5625 C 293.777344 19.867188 294.988281 20.710938 295.917969 22.089844 C 296.847656 23.46875 297.308594 25.449219 297.308594 28.03125 C 297.308594 30.199219 297.101562 32.019531 296.6875 33.492188 C 296.285156 34.953125 295.5 36.125 294.332031 37.003906 C 293.164062 37.886719 291.472656 38.519531 289.261719 38.90625 C 287.054688 39.292969 284.148438 39.484375 280.542969 39.484375 Z M 319.71875 39.242188 C 316.628906 39.242188 314.003906 39.082031 311.84375 38.761719 C 309.679688 38.457031 307.933594 37.824219 306.605469 36.863281 C 305.277344 35.882812 304.308594 34.421875 303.699219 32.484375 C 303.089844 30.542969 302.785156 27.953125 302.785156 24.710938 C 302.785156 21.570312 303.089844 19.050781 303.699219 17.15625 C 304.308594 15.265625 305.277344 13.839844 306.605469 12.875 C 307.933594 11.914062 309.679688 11.273438 311.84375 10.949219 C 314.003906 10.628906 316.628906 10.46875 319.71875 10.46875 C 322.683594 10.46875 325.179688 10.695312 327.214844 11.144531 C 329.265625 11.59375 330.875 12.59375 332.042969 14.152344 L 332.042969 1.761719 L 336.65625 1.761719 L 336.65625 38.714844 L 332.042969 38.714844 L 332.042969 35.539062 C 330.875 37.109375 329.265625 38.121094 327.214844 38.570312 C 325.179688 39.019531 322.683594 39.242188 319.71875 39.242188 Z M 332.042969 24.710938 C 332.042969 22.417969 331.882812 20.582031 331.5625 19.203125 C 331.242188 17.824219 330.648438 16.789062 329.785156 16.097656 C 328.921875 15.394531 327.679688 14.921875 326.0625 14.679688 C 324.445312 14.4375 322.332031 14.320312 319.71875 14.320312 C 316.871094 14.320312 314.613281 14.4375 312.949219 14.679688 C 311.28125 14.921875 310.058594 15.394531 309.273438 16.097656 C 308.488281 16.789062 307.976562 17.824219 307.734375 19.203125 C 307.511719 20.582031 307.398438 22.417969 307.398438 24.710938 C 307.398438 27.085938 307.511719 28.988281 307.734375 30.414062 C 307.976562 31.839844 308.488281 32.914062 309.273438 33.636719 C 310.058594 34.34375 311.28125 34.816406 312.949219 35.058594 C 314.613281 35.28125 316.871094 35.394531 319.71875 35.394531 C 322.332031 35.394531 324.445312 35.28125 326.0625 35.058594 C 327.679688 34.816406 328.921875 34.34375 329.785156 33.636719 C 330.648438 32.914062 331.242188 31.839844 331.5625 30.414062 C 331.882812 28.988281 332.042969 27.085938 332.042969 24.710938 Z M 347.511719 38.714844 L 347.511719 14.511719 L 342.898438 14.511719 L 342.898438 11 L 347.511719 11 L 347.511719 9.796875 C 347.511719 7.164062 347.9375 5.144531 348.785156 3.734375 C 349.648438 2.320312 350.988281 1.351562 352.796875 0.824219 C 354.621094 0.292969 356.96875 0.0273438 359.832031 0.0273438 L 365.191406 0.0273438 L 365.191406 3.78125 L 359.808594 3.78125 C 357.519531 3.78125 355.832031 3.925781 354.742188 4.214844 C 353.652344 4.503906 352.941406 5.082031 352.605469 5.945312 C 352.285156 6.796875 352.125 8.082031 352.125 9.796875 L 352.125 11 L 365.191406 11 L 365.191406 14.511719 L 352.125 14.511719 L 352.125 38.714844 Z M 384.429688 39.242188 C 381.339844 39.242188 378.714844 39.082031 376.550781 38.761719 C 374.390625 38.457031 372.644531 37.824219 371.316406 36.863281 C 369.984375 35.882812 369.015625 34.421875 368.410156 32.484375 C 367.800781 30.542969 367.496094 27.953125 367.496094 24.710938 C 367.496094 21.570312 367.800781 19.050781 368.410156 17.15625 C 369.015625 15.265625 369.984375 13.839844 371.316406 12.875 C 372.644531 11.914062 374.390625 11.273438 376.550781 10.949219 C 378.714844 10.628906 381.339844 10.46875 384.429688 10.46875 C 387.535156 10.46875 390.164062 10.628906 392.308594 10.949219 C 394.46875 11.273438 396.214844 11.914062 397.542969 12.875 C 398.875 13.839844 399.84375 15.265625 400.453125 17.15625 C 401.058594 19.050781 401.363281 21.570312 401.363281 24.710938 C 401.363281 27.953125 401.058594 30.542969 400.453125 32.484375 C 399.84375 34.421875 398.875 35.882812 397.542969 36.863281 C 396.214844 37.824219 394.46875 38.457031 392.308594 38.761719 C 390.164062 39.082031 387.535156 39.242188 384.429688 39.242188 Z M 396.753906 24.710938 C 396.753906 22.417969 396.632812 20.582031 396.390625 19.203125 C 396.167969 17.824219 395.664062 16.789062 394.878906 16.097656 C 394.09375 15.394531 392.867188 14.921875 391.203125 14.679688 C 389.554688 14.4375 387.296875 14.320312 384.429688 14.320312 C 381.578125 14.320312 379.320312 14.4375 377.65625 14.679688 C 375.992188 14.921875 374.765625 15.394531 373.980469 16.097656 C 373.195312 16.789062 372.683594 17.824219 372.445312 19.203125 C 372.21875 20.582031 372.109375 22.417969 372.109375 24.710938 C 372.109375 27.085938 372.21875 28.988281 372.445312 30.414062 C 372.683594 31.839844 373.195312 32.914062 373.980469 33.636719 C 374.765625 34.34375 375.992188 34.816406 377.65625 35.058594 C 379.320312 35.28125 381.578125 35.394531 384.429688 35.394531 C 387.296875 35.394531 389.554688 35.28125 391.203125 35.058594 C 392.867188 34.816406 394.09375 34.34375 394.878906 33.636719 C 395.664062 32.914062 396.167969 31.839844 396.390625 30.414062 C 396.632812 28.988281 396.753906 27.085938 396.753906 24.710938 Z M 403.667969 38.714844 L 417.839844 24.617188 L 404.34375 11 L 410.492188 11 L 421.035156 21.703125 L 431.339844 11 L 437.488281 11 L 423.992188 24.59375 L 438.164062 38.714844 L 432.011719 38.714844 L 420.917969 27.117188 L 409.820312 38.714844 Z M 459.058594 38.714844 L 459.058594 1.761719 L 495.28125 1.761719 L 495.28125 5.609375 L 463.671875 5.609375 L 463.671875 17.929688 L 493.960938 17.929688 L 493.960938 21.777344 L 463.671875 21.777344 L 463.671875 34.863281 L 495.953125 34.863281 L 495.953125 38.714844 Z M 541.375 28.03125 C 541.375 26.605469 541.261719 25.480469 541.039062 24.664062 C 540.816406 23.847656 540.3125 23.246094 539.527344 22.859375 C 538.742188 22.457031 537.523438 22.203125 535.875 22.089844 C 534.226562 21.960938 531.96875 21.875 529.101562 21.824219 L 515.746094 21.632812 C 512.449219 21.585938 509.796875 21.382812 507.796875 21.03125 C 505.792969 20.679688 504.28125 20.125 503.257812 19.371094 C 502.230469 18.601562 501.542969 17.574219 501.191406 16.292969 C 500.855469 15.007812 500.6875 13.40625 500.6875 11.480469 C 500.6875 9.378906 500.917969 7.648438 501.382812 6.285156 C 501.863281 4.921875 502.71875 3.855469 503.953125 3.085938 C 505.203125 2.3125 506.964844 1.777344 509.238281 1.472656 C 511.511719 1.152344 514.449219 0.992188 518.050781 0.992188 L 528.332031 0.992188 C 531.597656 0.992188 534.320312 1.09375 536.5 1.304688 C 538.675781 1.511719 540.40625 1.992188 541.6875 2.746094 C 542.96875 3.5 543.882812 4.671875 544.425781 6.257812 C 544.984375 7.847656 545.265625 10.027344 545.265625 12.804688 L 540.65625 12.804688 C 540.65625 10.65625 540.445312 9.035156 540.03125 7.945312 C 539.628906 6.835938 538.957031 6.082031 538.011719 5.683594 C 537.082031 5.28125 535.828125 5.066406 534.242188 5.03125 C 532.65625 5 530.6875 4.984375 528.332031 4.984375 L 518.292969 4.984375 C 515.425781 4.984375 513.128906 5.039062 511.398438 5.152344 C 509.683594 5.265625 508.386719 5.523438 507.507812 5.921875 C 506.625 6.324219 506.035156 6.964844 505.730469 7.847656 C 505.441406 8.730469 505.296875 9.941406 505.296875 11.480469 C 505.296875 12.78125 505.402344 13.820312 505.609375 14.609375 C 505.816406 15.394531 506.28125 15.996094 507.003906 16.414062 C 507.738281 16.8125 508.867188 17.09375 510.390625 17.253906 C 511.910156 17.398438 513.984375 17.488281 516.609375 17.519531 L 530.925781 17.710938 C 534.289062 17.757812 536.972656 17.960938 538.972656 18.3125 C 540.992188 18.648438 542.496094 19.203125 543.488281 19.972656 C 544.496094 20.742188 545.164062 21.785156 545.480469 23.101562 C 545.820312 24.398438 545.988281 26.042969 545.988281 28.03125 C 545.988281 30.199219 545.777344 32.019531 545.363281 33.492188 C 544.960938 34.953125 544.179688 36.125 543.007812 37.003906 C 541.839844 37.886719 540.148438 38.519531 537.941406 38.90625 C 535.730469 39.292969 532.824219 39.484375 529.222656 39.484375 L 517.980469 39.484375 C 514.699219 39.484375 511.941406 39.339844 509.71875 39.050781 C 507.492188 38.761719 505.714844 38.183594 504.382812 37.320312 C 503.070312 36.4375 502.128906 35.128906 501.550781 33.398438 C 500.972656 31.664062 500.6875 29.355469 500.6875 26.46875 L 505.296875 26.46875 C 505.296875 28.730469 505.480469 30.476562 505.851562 31.714844 C 506.21875 32.949219 506.859375 33.839844 507.769531 34.382812 C 508.699219 34.914062 509.988281 35.234375 511.636719 35.347656 C 513.304688 35.441406 515.417969 35.488281 517.980469 35.488281 L 528.980469 35.488281 C 531.847656 35.488281 534.113281 35.402344 535.777344 35.226562 C 537.445312 35.03125 538.675781 34.679688 539.476562 34.167969 C 540.277344 33.636719 540.789062 32.882812 541.015625 31.90625 C 541.253906 30.925781 541.375 29.636719 541.375 28.03125 Z M 553.648438 1.761719 L 578.339844 1.761719 C 581.945312 1.761719 584.84375 1.921875 587.035156 2.242188 C 589.246094 2.5625 590.921875 3.117188 592.058594 3.902344 C 593.195312 4.6875 593.960938 5.761719 594.363281 7.125 C 594.761719 8.488281 594.964844 10.214844 594.964844 12.296875 L 594.964844 13.261719 C 594.964844 15.183594 594.730469 16.84375 594.265625 18.242188 C 593.816406 19.621094 592.945312 20.742188 591.648438 21.609375 C 590.351562 22.457031 588.429688 23.058594 585.882812 23.414062 L 593.90625 38.714844 L 589.292969 38.714844 L 581.441406 23.75 C 581.121094 23.765625 580.785156 23.773438 580.429688 23.773438 C 580.09375 23.773438 579.742188 23.773438 579.375 23.773438 L 558.261719 23.773438 L 558.261719 38.714844 L 553.648438 38.714844 Z M 558.261719 19.78125 L 578.652344 19.78125 C 581.390625 19.78125 583.546875 19.691406 585.117188 19.515625 C 586.699219 19.324219 587.863281 18.996094 588.597656 18.527344 C 589.351562 18.0625 589.832031 17.40625 590.039062 16.554688 C 590.246094 15.707031 590.351562 14.609375 590.351562 13.261719 L 590.351562 12.296875 C 590.351562 10.773438 590.207031 9.570312 589.917969 8.691406 C 589.632812 7.808594 589.054688 7.15625 588.191406 6.742188 C 587.324219 6.324219 586.035156 6.058594 584.324219 5.945312 C 582.609375 5.820312 580.320312 5.753906 577.453125 5.753906 L 558.261719 5.753906 Z M 558.261719 19.78125 "/>
</g>
</svg>
