<?xml version="1.0" encoding="UTF-8"?>
<svg xmlns="http://www.w3.org/2000/svg" xmlns:xlink="http://www.w3.org/1999/xlink" width="385px" height="42px" viewBox="0 0 384 42" version="1.1">
<defs>
<linearGradient id="linear0" gradientUnits="userSpaceOnUse" x1="61.937199" y1="3.00001" x2="61.937199" y2="592" gradientTransform="matrix(0.0693642,0,0,0.0695364,0,0)">
<stop offset="0" style="stop-color:rgb(95.294118%,52.54902%,17.647059%);stop-opacity:1;"/>
<stop offset="0.5" style="stop-color:rgb(87.058824%,38.039216%,7.45098%);stop-opacity:1;"/>
<stop offset="1" style="stop-color:rgb(78.431373%,30.980392%,7.45098%);stop-opacity:1;"/>
</linearGradient>
</defs>
<g id="surface1">
<path style=" stroke:none;fill-rule:nonzero;fill:url(#linear0);" d="M 0.03125 41.164062 L 0.03125 11.695312 L 4.929688 11.695312 L 4.929688 15.761719 C 5.476562 14.894531 6.019531 14.167969 6.5625 13.589844 C 7.125 13.007812 7.847656 12.546875 8.734375 12.207031 C 9.632812 11.867188 10.851562 11.628906 12.382812 11.492188 C 13.914062 11.335938 15.929688 11.261719 18.429688 11.261719 L 18.429688 15.378906 C 15.0625 15.378906 12.449219 15.5 10.59375 15.738281 C 8.757812 15.976562 7.441406 16.386719 6.640625 16.964844 C 5.839844 17.527344 5.355469 18.3125 5.1875 19.320312 C 5.015625 20.324219 4.929688 21.605469 4.929688 23.15625 L 4.929688 41.164062 Z M 42.59375 41.984375 C 38.765625 41.984375 35.679688 41.78125 33.332031 41.371094 C 30.984375 40.960938 29.191406 40.289062 27.949219 39.347656 C 26.707031 38.410156 25.863281 37.167969 25.421875 35.613281 C 24.996094 34.046875 24.785156 32.109375 24.785156 29.808594 L 29.683594 29.808594 C 29.683594 31.511719 29.800781 32.886719 30.039062 33.925781 C 30.296875 34.964844 30.847656 35.769531 31.699219 36.332031 C 32.550781 36.875 33.859375 37.25 35.628906 37.457031 C 37.398438 37.644531 39.804688 37.738281 42.851562 37.738281 L 49.6875 37.738281 C 52.734375 37.738281 55.140625 37.644531 56.910156 37.457031 C 58.679688 37.25 59.988281 36.875 60.839844 36.332031 C 61.691406 35.769531 62.234375 34.964844 62.472656 33.925781 C 62.730469 32.886719 62.855469 31.511719 62.855469 29.808594 C 62.855469 28.289062 62.738281 27.070312 62.5 26.148438 C 62.261719 25.226562 61.726562 24.527344 60.890625 24.050781 C 60.058594 23.574219 58.765625 23.257812 57.011719 23.105469 C 55.261719 22.933594 52.863281 22.847656 49.816406 22.847656 L 42.210938 22.847656 L 42.210938 18.730469 L 50.835938 18.730469 C 53.628906 18.730469 55.832031 18.644531 57.445312 18.476562 C 59.0625 18.304688 60.253906 17.996094 61.019531 17.554688 C 61.800781 17.09375 62.304688 16.4375 62.523438 15.585938 C 62.746094 14.714844 62.855469 13.589844 62.855469 12.207031 C 62.855469 10.570312 62.695312 9.28125 62.371094 8.34375 C 62.066406 7.40625 61.445312 6.722656 60.507812 6.296875 C 59.574219 5.871094 58.1875 5.597656 56.347656 5.480469 C 54.527344 5.359375 52.097656 5.300781 49.050781 5.300781 L 43.488281 5.300781 C 40.441406 5.300781 38.003906 5.359375 36.164062 5.480469 C 34.34375 5.597656 32.964844 5.871094 32.03125 6.296875 C 31.09375 6.722656 30.464844 7.40625 30.140625 8.34375 C 29.835938 9.28125 29.683594 10.570312 29.683594 12.207031 L 24.785156 12.207031 C 24.785156 9.972656 25.03125 8.132812 25.523438 6.683594 C 26.035156 5.230469 26.945312 4.097656 28.253906 3.28125 C 29.582031 2.460938 31.453125 1.890625 33.867188 1.566406 C 36.285156 1.222656 39.40625 1.054688 43.234375 1.054688 L 49.304688 1.054688 C 53.132812 1.054688 56.257812 1.222656 58.671875 1.566406 C 61.085938 1.890625 62.949219 2.460938 64.261719 3.28125 C 65.585938 4.097656 66.496094 5.230469 66.992188 6.683594 C 67.5 8.132812 67.757812 9.972656 67.757812 12.207031 C 67.757812 14.851562 67.253906 16.871094 66.25 18.269531 C 65.265625 19.667969 63.988281 20.511719 62.421875 20.800781 C 64.003906 21.125 65.289062 22.023438 66.277344 23.488281 C 67.261719 24.957031 67.757812 27.0625 67.757812 29.808594 C 67.757812 32.109375 67.535156 34.046875 67.09375 35.613281 C 66.667969 37.167969 65.832031 38.410156 64.59375 39.347656 C 63.351562 40.289062 61.554688 40.960938 59.207031 41.371094 C 56.859375 41.78125 53.773438 41.984375 49.945312 41.984375 Z M 91.5625 41.726562 C 88.28125 41.726562 85.492188 41.558594 83.195312 41.214844 C 80.898438 40.894531 79.042969 40.21875 77.632812 39.195312 C 76.21875 38.15625 75.191406 36.605469 74.542969 34.539062 C 73.898438 32.476562 73.574219 29.722656 73.574219 26.277344 C 73.574219 22.933594 73.898438 20.257812 74.542969 18.246094 C 75.191406 16.230469 76.21875 14.714844 77.632812 13.691406 C 79.042969 12.667969 80.898438 11.984375 83.195312 11.644531 C 85.492188 11.304688 88.28125 11.132812 91.5625 11.132812 C 94.710938 11.132812 97.367188 11.371094 99.527344 11.847656 C 101.703125 12.328125 103.414062 13.390625 104.65625 15.046875 L 104.65625 1.871094 L 109.554688 1.871094 L 109.554688 41.164062 L 104.65625 41.164062 L 104.65625 37.789062 C 103.414062 39.460938 101.703125 40.535156 99.527344 41.011719 C 97.367188 41.488281 94.710938 41.726562 91.5625 41.726562 Z M 104.65625 26.277344 C 104.65625 23.839844 104.484375 21.886719 104.144531 20.417969 C 103.804688 18.953125 103.175781 17.851562 102.257812 17.117188 C 101.339844 16.367188 100.019531 15.867188 98.300781 15.609375 C 96.582031 15.355469 94.335938 15.226562 91.5625 15.226562 C 88.535156 15.226562 86.136719 15.355469 84.367188 15.609375 C 82.597656 15.867188 81.296875 16.367188 80.464844 17.117188 C 79.628906 17.851562 79.085938 18.953125 78.832031 20.417969 C 78.59375 21.886719 78.472656 23.839844 78.472656 26.277344 C 78.472656 28.800781 78.59375 30.820312 78.832031 32.339844 C 79.085938 33.859375 79.628906 35 80.464844 35.769531 C 81.296875 36.519531 82.597656 37.019531 84.367188 37.277344 C 86.136719 37.515625 88.535156 37.636719 91.5625 37.636719 C 94.335938 37.636719 96.582031 37.515625 98.300781 37.277344 C 100.019531 37.019531 101.339844 36.519531 102.257812 35.769531 C 103.175781 35 103.804688 33.859375 104.144531 32.339844 C 104.484375 30.820312 104.65625 28.800781 104.65625 26.277344 Z M 121.089844 41.164062 L 121.089844 15.429688 L 116.191406 15.429688 L 116.191406 11.695312 L 121.089844 11.695312 L 121.089844 10.417969 C 121.089844 7.621094 121.539062 5.472656 122.441406 3.96875 C 123.359375 2.46875 124.78125 1.4375 126.703125 0.875 C 128.640625 0.3125 131.132812 0.03125 134.179688 0.03125 L 139.871094 0.03125 L 139.871094 4.019531 L 134.15625 4.019531 C 131.722656 4.019531 129.925781 4.175781 128.769531 4.480469 C 127.613281 4.789062 126.855469 5.402344 126.5 6.324219 C 126.160156 7.226562 125.988281 8.589844 125.988281 10.417969 L 125.988281 11.695312 L 139.871094 11.695312 L 139.871094 15.429688 L 125.988281 15.429688 L 125.988281 41.164062 Z M 160.308594 41.726562 C 157.027344 41.726562 154.238281 41.558594 151.941406 41.214844 C 149.644531 40.894531 147.789062 40.21875 146.378906 39.195312 C 144.964844 38.15625 143.9375 36.605469 143.289062 34.539062 C 142.644531 32.476562 142.320312 29.722656 142.320312 26.277344 C 142.320312 22.933594 142.644531 20.257812 143.289062 18.246094 C 143.9375 16.230469 144.964844 14.714844 146.378906 13.691406 C 147.789062 12.667969 149.644531 11.984375 151.941406 11.644531 C 154.238281 11.304688 157.027344 11.132812 160.308594 11.132812 C 163.609375 11.132812 166.402344 11.304688 168.679688 11.644531 C 170.976562 11.984375 172.832031 12.667969 174.242188 13.691406 C 175.65625 14.714844 176.683594 16.230469 177.332031 18.246094 C 177.976562 20.257812 178.300781 22.933594 178.300781 26.277344 C 178.300781 29.722656 177.976562 32.476562 177.332031 34.539062 C 176.683594 36.605469 175.65625 38.15625 174.242188 39.195312 C 172.832031 40.21875 170.976562 40.894531 168.679688 41.214844 C 166.402344 41.558594 163.609375 41.726562 160.308594 41.726562 Z M 173.402344 26.277344 C 173.402344 23.839844 173.273438 21.886719 173.019531 20.417969 C 172.78125 18.953125 172.246094 17.851562 171.410156 17.117188 C 170.578125 16.367188 169.277344 15.867188 167.507812 15.609375 C 165.753906 15.355469 163.355469 15.226562 160.308594 15.226562 C 157.28125 15.226562 154.882812 15.355469 153.113281 15.609375 C 151.34375 15.867188 150.042969 16.367188 149.210938 17.117188 C 148.375 17.851562 147.832031 18.953125 147.578125 20.417969 C 147.339844 21.886719 147.21875 23.839844 147.21875 26.277344 C 147.21875 28.800781 147.339844 30.820312 147.578125 32.339844 C 147.832031 33.859375 148.375 35 149.210938 35.769531 C 150.042969 36.519531 151.34375 37.019531 153.113281 37.277344 C 154.882812 37.515625 157.28125 37.636719 160.308594 37.636719 C 163.355469 37.636719 165.753906 37.515625 167.507812 37.277344 C 169.277344 37.019531 170.578125 36.519531 171.410156 35.769531 C 172.246094 35 172.78125 33.859375 173.019531 32.339844 C 173.273438 30.820312 173.402344 28.800781 173.402344 26.277344 Z M 180.75 41.164062 L 195.804688 26.175781 L 181.464844 11.695312 L 187.996094 11.695312 L 199.199219 23.078125 L 210.148438 11.695312 L 216.679688 11.695312 L 202.339844 26.148438 L 217.394531 41.164062 L 210.863281 41.164062 L 199.074219 28.835938 L 187.285156 41.164062 Z M 239.59375 41.164062 L 239.59375 1.871094 L 278.078125 1.871094 L 278.078125 5.964844 L 244.496094 5.964844 L 244.496094 19.0625 L 276.671875 19.0625 L 276.671875 23.15625 L 244.496094 23.15625 L 244.496094 37.074219 L 278.792969 37.074219 L 278.792969 41.164062 Z M 327.046875 29.808594 C 327.046875 28.289062 326.925781 27.097656 326.6875 26.226562 C 326.449219 25.355469 325.914062 24.714844 325.082031 24.308594 C 324.246094 23.882812 322.953125 23.609375 321.203125 23.488281 C 319.449219 23.351562 317.050781 23.257812 314.007812 23.207031 L 299.816406 23.003906 C 296.3125 22.953125 293.496094 22.738281 291.371094 22.363281 C 289.246094 21.988281 287.636719 21.398438 286.546875 20.597656 C 285.460938 19.78125 284.726562 18.6875 284.355469 17.324219 C 283.996094 15.960938 283.816406 14.253906 283.816406 12.207031 C 283.816406 9.972656 284.066406 8.132812 284.558594 6.683594 C 285.070312 5.230469 285.980469 4.097656 287.289062 3.28125 C 288.617188 2.460938 290.488281 1.890625 292.902344 1.566406 C 295.316406 1.222656 298.441406 1.054688 302.265625 1.054688 L 313.191406 1.054688 C 316.660156 1.054688 319.550781 1.164062 321.867188 1.386719 C 324.179688 1.609375 326.015625 2.121094 327.378906 2.921875 C 328.738281 3.722656 329.707031 4.96875 330.285156 6.65625 C 330.882812 8.34375 331.179688 10.664062 331.179688 13.613281 L 326.28125 13.613281 C 326.28125 11.328125 326.058594 9.605469 325.617188 8.445312 C 325.191406 7.269531 324.476562 6.46875 323.472656 6.042969 C 322.488281 5.617188 321.152344 5.386719 319.46875 5.351562 C 317.78125 5.316406 315.691406 5.300781 313.191406 5.300781 L 302.523438 5.300781 C 299.476562 5.300781 297.035156 5.359375 295.199219 5.480469 C 293.378906 5.597656 292 5.871094 291.066406 6.296875 C 290.128906 6.722656 289.5 7.40625 289.175781 8.34375 C 288.871094 9.28125 288.71875 10.570312 288.71875 12.207031 C 288.71875 13.589844 288.828125 14.695312 289.050781 15.53125 C 289.269531 16.367188 289.765625 17.007812 290.527344 17.453125 C 291.3125 17.878906 292.511719 18.175781 294.128906 18.347656 C 295.742188 18.5 297.945312 18.59375 300.738281 18.628906 L 315.945312 18.832031 C 319.519531 18.882812 322.367188 19.097656 324.492188 19.472656 C 326.636719 19.832031 328.238281 20.417969 329.292969 21.238281 C 330.363281 22.054688 331.070312 23.164062 331.410156 24.5625 C 331.765625 25.945312 331.945312 27.691406 331.945312 29.808594 C 331.945312 32.109375 331.722656 34.046875 331.28125 35.613281 C 330.855469 37.167969 330.023438 38.410156 328.78125 39.347656 C 327.539062 40.289062 325.746094 40.960938 323.398438 41.371094 C 321.050781 41.78125 317.960938 41.984375 314.132812 41.984375 L 302.191406 41.984375 C 298.703125 41.984375 295.777344 41.832031 293.414062 41.523438 C 291.046875 41.214844 289.160156 40.601562 287.746094 39.683594 C 286.351562 38.742188 285.347656 37.355469 284.738281 35.511719 C 284.125 33.671875 283.816406 31.214844 283.816406 28.144531 L 288.71875 28.144531 C 288.71875 30.550781 288.914062 32.40625 289.304688 33.722656 C 289.695312 35.035156 290.375 35.980469 291.347656 36.5625 C 292.332031 37.125 293.703125 37.464844 295.453125 37.585938 C 297.222656 37.6875 299.46875 37.738281 302.191406 37.738281 L 313.878906 37.738281 C 316.921875 37.738281 319.332031 37.644531 321.101562 37.457031 C 322.871094 37.25 324.179688 36.875 325.03125 36.332031 C 325.878906 35.769531 326.425781 34.964844 326.664062 33.925781 C 326.917969 32.886719 327.046875 31.511719 327.046875 29.808594 Z M 340.085938 1.871094 L 366.320312 1.871094 C 370.144531 1.871094 373.226562 2.042969 375.554688 2.382812 C 377.902344 2.726562 379.679688 3.3125 380.890625 4.148438 C 382.097656 4.984375 382.914062 6.128906 383.339844 7.578125 C 383.765625 9.027344 383.976562 10.859375 383.976562 13.078125 L 383.976562 14.101562 C 383.976562 16.148438 383.730469 17.910156 383.234375 19.394531 C 382.761719 20.863281 381.832031 22.054688 380.453125 22.976562 C 379.078125 23.882812 377.035156 24.519531 374.332031 24.894531 L 382.855469 41.164062 L 377.953125 41.164062 L 369.609375 25.253906 C 369.269531 25.269531 368.914062 25.28125 368.539062 25.28125 C 368.179688 25.28125 367.808594 25.28125 367.414062 25.28125 L 344.984375 25.28125 L 344.984375 41.164062 L 340.085938 41.164062 Z M 344.984375 21.03125 L 366.648438 21.03125 C 369.558594 21.03125 371.847656 20.9375 373.515625 20.75 C 375.199219 20.546875 376.433594 20.199219 377.214844 19.703125 C 378.015625 19.207031 378.523438 18.507812 378.746094 17.605469 C 378.964844 16.699219 379.078125 15.53125 379.078125 14.101562 L 379.078125 13.078125 C 379.078125 11.457031 378.925781 10.179688 378.617188 9.238281 C 378.3125 8.300781 377.699219 7.609375 376.78125 7.167969 C 375.863281 6.722656 374.492188 6.441406 372.671875 6.324219 C 370.851562 6.1875 368.417969 6.117188 365.375 6.117188 L 344.984375 6.117188 Z M 344.984375 21.03125 "/>
</g>
</svg>
